# File created by Blade
# Date/Time:  Fri Jan 16 19:32:17 2015
# Frame Rate: 120.000 fps
#------------------------------------------------------
:FULLY-SPECIFIED
:DEGREES
461
root 19.576219 35.447789 -19.851941 13.079988 13.018460 0.006880
Spine -28.883228 -11.016697 -1.651409
Head 16.982505 -4.621385 7.334788
LeftShoulder -7.550803 1.024597 -8.873354
LeftArm -102.408524 57.834318 -204.154436
LeftForeArm 47.572124 -0.000000 137.651257
LeftHand 9.539265 -0.000000 -22.414752
LeftHandThumb1 -26.253704 0.000000 33.147579
RightShoulder -20.478675 29.958522 -41.818562
RightArm -203.875728 51.268225 -250.155370
RightForeArm 21.861033 -0.000000 150.846029
RightHand 4.790586 -0.000000 -7.334020
RightHandThumb1 -24.326973 -0.000000 -32.862282
LeftUpLeg -3.723219 -0.471112 1.900967
LeftLeg -7.506495 -0.000000 0.000000
LeftFoot -19.525221 26.177627 -13.435940
LeftToeBase 25.940099 -0.000000 -0.000000
RightUpLeg -1.053001 -17.725650 0.265689
RightLeg -4.650721 -0.000000 0.000000
RightFoot -23.942046 -24.707835 21.882053
RightToeBase 23.587954 -0.000000 -0.000000
462
root 19.576543 35.447174 -19.853030 13.084485 13.022076 0.006873
Spine -28.895764 -11.015119 -1.649272
Head 16.993236 -4.615408 7.289624
LeftShoulder -7.540483 1.034188 -8.868725
LeftArm -102.393217 57.850996 -204.137190
LeftForeArm 47.577241 -0.000000 137.656064
LeftHand 9.505281 0.000000 -22.379891
LeftHandThumb1 -26.253704 0.000000 33.147579
RightShoulder -20.472747 29.982468 -41.860556
RightArm -203.885368 51.266758 -250.162117
RightForeArm 21.866246 0.000000 150.832513
RightHand 4.806395 -0.000000 -7.288988
RightHandThumb1 -24.326973 -0.000000 -32.862282
LeftUpLeg -3.731511 -0.469713 1.899694
LeftLeg -7.502008 -0.000000 0.000000
LeftFoot -19.529262 26.174932 -13.417809
LeftToeBase 25.940606 -0.000000 -0.000000
RightUpLeg -1.061069 -17.736801 0.265676
RightLeg -4.643851 -0.000000 0.000000
RightFoot -23.960533 -24.726558 21.842328
RightToeBase 23.725291 -0.000000 -0.000000
463
root 19.576773 35.447222 -19.853847 13.089901 13.035923 0.002788
Spine -28.909430 -11.021380 -1.636173
Head 16.986757 -4.584435 7.264079
LeftShoulder -7.534550 1.039558 -8.874339
LeftArm -102.373531 57.852125 -204.110316
LeftForeArm 47.573313 -0.000000 137.655743
LeftHand 9.471828 -0.000000 -22.343301
LeftHandThumb1 -26.253704 0.000000 33.147579
RightShoulder -20.455114 29.980015 -41.869671
RightArm -203.853612 51.258242 -250.161671
RightForeArm 21.871724 -0.000000 150.825127
RightHand 4.791670 0.000000 -7.261885
RightHandThumb1 -24.326973 -0.000000 -32.862282
LeftUpLeg -3.748196 -0.468881 1.903528
LeftLeg -7.488994 -0.000000 0.000000
LeftFoot -19.539373 26.165874 -13.417610
LeftToeBase 25.960201 -0.000000 -0.000000
RightUpLeg -1.070444 -17.762345 0.274421
RightLeg -4.639974 -0.000000 0.000000
RightFoot -23.950586 -24.674028 21.878940
RightToeBase 23.657019 -0.000000 -0.000000
464
root 19.577500 35.447324 -19.853169 13.091201 13.031007 0.002651
Spine -28.917429 -11.017101 -1.632355
Head 16.983354 -4.567241 7.237479
LeftShoulder -7.548352 1.039955 -8.881421
LeftArm -102.365252 57.844587 -204.095399
LeftForeArm 47.560626 0.000000 137.659106
LeftHand 9.451364 -0.000000 -22.318296
LeftHandThumb1 -26.253704 0.000000 33.147579
RightShoulder -20.454961 29.969069 -41.877620
RightArm -203.851772 51.230570 -250.183703
RightForeArm 21.883338 -0.000000 150.822475
RightHand 4.777497 -0.000000 -7.246948
RightHandThumb1 -24.326973 -0.000000 -32.862282
LeftUpLeg -3.747692 -0.444983 1.899333
LeftLeg -7.489131 -0.000000 0.000000
LeftFoot -19.536197 26.148307 -13.410680
LeftToeBase 25.986515 -0.000000 -0.000000
RightUpLeg -1.071452 -17.763088 0.272441
RightLeg -4.640153 -0.000000 0.000000
RightFoot -23.945324 -24.668229 21.887221
RightToeBase 23.657488 -0.000000 -0.000000
465
root 19.577536 35.447543 -19.853784 13.102505 13.038508 -0.005133
Spine -28.933625 -11.024179 -1.616346
Head 16.970765 -4.550519 7.230522
LeftShoulder -7.560138 1.062277 -8.884159
LeftArm -102.369564 57.860903 -204.098727
LeftForeArm 47.579210 -0.000000 137.647984
LeftHand 9.432349 0.000000 -22.289829
LeftHandThumb1 -26.253704 0.000000 33.147579
RightShoulder -20.465544 29.996048 -41.901853
RightArm -203.900440 51.188693 -250.228098
RightForeArm 21.963886 -0.000000 150.814457
RightHand 4.780800 -0.000000 -7.183560
RightHandThumb1 -24.326973 -0.000000 -32.862282
LeftUpLeg -3.765936 -0.449798 1.908976
LeftLeg -7.481680 -0.000000 0.000000
LeftFoot -19.541967 26.139001 -13.404001
LeftToeBase 25.972570 -0.000000 -0.000000
RightUpLeg -1.090105 -17.771502 0.286327
RightLeg -4.632698 -0.000000 0.000000
RightFoot -23.937063 -24.669392 21.878034
RightToeBase 23.625613 -0.000000 -0.000000
466
root 19.578731 35.447906 -19.852845 13.107524 13.045594 -0.001961
Spine -28.941650 -11.039705 -1.612554
Head 16.951037 -4.523745 7.243573
LeftShoulder -7.602336 1.060441 -8.877078
LeftArm -102.380745 57.859925 -204.100373
LeftForeArm 47.544749 -0.000000 137.656637
LeftHand 9.399587 -0.000000 -22.272036
LeftHandThumb1 -26.253704 0.000000 33.147579
RightShoulder -20.466240 30.001133 -41.912919
RightArm -203.932849 51.177986 -250.265638
RightForeArm 21.980707 -0.000000 150.813610
RightHand 4.774643 -0.000000 -7.186615
RightHandThumb1 -24.326973 -0.000000 -32.862282
LeftUpLeg -3.767650 -0.456515 1.906239
LeftLeg -7.485555 -0.000000 0.000000
LeftFoot -19.532068 26.139553 -13.399929
LeftToeBase 25.963214 -0.000000 -0.000000
RightUpLeg -1.094572 -17.787972 0.283851
RightLeg -4.626345 -0.000000 0.000000
RightFoot -23.927426 -24.663721 21.867415
RightToeBase 23.641466 -0.000000 -0.000000
467
root 19.580432 35.447905 -19.852876 13.100615 13.043720 0.000961
Spine -28.942559 -11.023383 -1.617965
Head 16.959630 -4.513907 7.237491
LeftShoulder -7.584325 1.071455 -8.889555
LeftArm -102.357771 57.862895 -204.084984
LeftForeArm 47.580899 -0.000000 137.655112
LeftHand 9.349119 -0.000000 -22.240166
LeftHandThumb1 -26.253704 0.000000 33.147579
RightShoulder -20.435688 29.909797 -41.875199
RightArm -203.816415 51.140595 -250.210503
RightForeArm 22.045795 -0.000000 150.809471
RightHand 4.754458 -0.000000 -7.124854
RightHandThumb1 -24.326973 -0.000000 -32.862282
LeftUpLeg -3.762130 -0.431259 1.897151
LeftLeg -7.480660 -0.000000 0.000000
LeftFoot -19.522060 26.116899 -13.396522
LeftToeBase 25.938083 -0.000000 -0.000000
RightUpLeg -1.088697 -17.782697 0.275583
RightLeg -4.622202 -0.000000 0.000000
RightFoot -23.941463 -24.706417 21.836357
RightToeBase 23.712894 -0.000000 -0.000000
468
root 19.582367 35.447969 -19.850737 13.104546 13.036250 0.001880
Spine -28.941878 -11.019395 -1.616476
Head 16.915299 -4.497492 7.255911
LeftShoulder -7.629129 1.068874 -8.896809
LeftArm -102.405480 57.849696 -204.135030
LeftForeArm 47.581270 0.000000 137.659023
LeftHand 9.332927 -0.000000 -22.235353
LeftHandThumb1 -26.253704 0.000000 33.147579
RightShoulder -20.470952 29.965601 -41.935441
RightArm -203.939598 51.172483 -250.273874
RightForeArm 21.995513 0.000000 150.812979
RightHand 4.772954 -0.000000 -7.156017
RightHandThumb1 -24.326973 -0.000000 -32.862282
LeftUpLeg -3.754047 -0.431832 1.892233
LeftLeg -7.494477 -0.000000 0.000000
LeftFoot -19.519929 26.134984 -13.396001
LeftToeBase 25.966972 -0.000000 -0.000000
RightUpLeg -1.086055 -17.765092 0.270102
RightLeg -4.628118 -0.000000 0.000000
RightFoot -23.926389 -24.680964 21.866872
RightToeBase 23.589709 -0.000000 -0.000000
469
root 19.585546 35.448088 -19.848857 13.102477 13.053310 0.007923
Spine -28.945189 -11.031768 -1.609893
Head 16.906819 -4.472071 7.262431
LeftShoulder -7.653753 1.084615 -8.905761
LeftArm -102.414121 57.868954 -204.149679
LeftForeArm 47.594253 -0.000000 137.653938
LeftHand 9.293376 -0.000000 -22.208284
LeftHandThumb1 -26.253704 0.000000 33.147579
RightShoulder -20.465356 29.958968 -41.958161
RightArm -203.958136 51.185803 -250.271514
RightForeArm 22.021672 -0.000000 150.824261
RightHand 4.772945 -0.000000 -7.174535
RightHandThumb1 -24.326973 -0.000000 -32.862282
LeftUpLeg -3.753058 -0.433327 1.884666
LeftLeg -7.486976 -0.000000 0.000000
LeftFoot -19.520195 26.111030 -13.396835
LeftToeBase 25.934513 -0.000000 -0.000000
RightUpLeg -1.075222 -17.782241 0.261684
RightLeg -4.630382 -0.000000 0.000000
RightFoot -23.936521 -24.719849 21.827236
RightToeBase 23.732624 -0.000000 -0.000000
470
root 19.588202 35.448156 -19.847843 13.098529 13.047905 0.012259
Spine -28.939268 -11.018298 -1.611655
Head 16.890034 -4.459988 7.256311
LeftShoulder -7.669623 1.094860 -8.929573
LeftArm -102.441697 57.883976 -204.178630
LeftForeArm 47.619122 -0.000000 137.669135
LeftHand 9.246449 -0.000000 -22.195469
LeftHandThumb1 -26.253704 0.000000 33.147579
RightShoulder -20.470065 29.968652 -41.988907
RightArm -203.989947 51.199392 -250.269135
RightForeArm 22.024300 -0.000000 150.824099
RightHand 4.794065 -0.000000 -7.157921
RightHandThumb1 -24.326973 -0.000000 -32.862282
LeftUpLeg -3.738796 -0.449965 1.879292
LeftLeg -7.499141 -0.000000 0.000000
LeftFoot -19.510733 26.124129 -13.410673
LeftToeBase 25.901735 -0.000000 -0.000000
RightUpLeg -1.066764 -17.770705 0.250730
RightLeg -4.634867 -0.000000 0.000000
RightFoot -23.930646 -24.697224 21.887847
RightToeBase 23.620671 -0.000000 -0.000000
471
root 19.590475 35.448235 -19.846364 13.093263 13.046967 0.021013
Spine -28.928120 -11.006783 -1.625541
Head 16.863175 -4.461976 7.265649
LeftShoulder -7.674780 1.128497 -8.946227
LeftArm -102.497808 57.921431 -204.240018
LeftForeArm 47.599977 -0.000000 137.675177
LeftHand 9.197746 -0.000000 -22.173330
LeftHandThumb1 -26.253704 0.000000 33.147579
RightShoulder -20.473837 29.967255 -42.005202
RightArm -204.006784 51.219240 -250.254621
RightForeArm 22.037237 -0.000000 150.832279
RightHand 4.778338 -0.000000 -7.183896
RightHandThumb1 -24.326973 -0.000000 -32.862282
LeftUpLeg -3.732074 -0.442543 1.866346
LeftLeg -7.493755 -0.000000 0.000000
LeftFoot -19.511025 26.125698 -13.400144
LeftToeBase 25.955521 -0.000000 -0.000000
RightUpLeg -1.051844 -17.768367 0.237391
RightLeg -4.643671 -0.000000 0.000000
RightFoot -23.920301 -24.708536 21.872520
RightToeBase 23.590733 -0.000000 -0.000000
472
root 19.592873 35.448327 -19.844576 13.085538 13.041346 0.027357
Spine -28.912535 -10.985088 -1.638377
Head 16.838198 -4.460771 7.268335
LeftShoulder -7.684141 1.124620 -8.958744
LeftArm -102.547021 57.938573 -204.290795
LeftForeArm 47.606008 -0.000000 137.673054
LeftHand 9.156671 -0.000000 -22.128124
LeftHandThumb1 -26.253704 0.000000 33.147579
RightShoulder -20.482448 29.941233 -42.018477
RightArm -203.976691 51.221882 -250.196378
RightForeArm 22.040305 -0.000000 150.843092
RightHand 4.787796 0.000000 -7.199938
RightHandThumb1 -24.326973 -0.000000 -32.862282
LeftUpLeg -3.710820 -0.439992 1.856921
LeftLeg -7.508539 -0.000000 0.000000
LeftFoot -19.494120 26.120183 -13.399970
LeftToeBase 25.904400 -0.000000 -0.000000
RightUpLeg -1.038092 -17.778400 0.224052
RightLeg -4.646840 -0.000000 0.000000
RightFoot -23.919194 -24.698628 21.869469
RightToeBase 23.601438 -0.000000 -0.000000
473
root 19.595423 35.448249 -19.843723 13.086435 13.041757 0.031287
Spine -28.905770 -10.976324 -1.638663
Head 16.810994 -4.470374 7.261443
LeftShoulder -7.699557 1.094792 -8.973104
LeftArm -102.578838 57.925590 -204.329376
LeftForeArm 47.642503 -0.000000 137.672292
LeftHand 9.115811 -0.000000 -22.096487
LeftHandThumb1 -26.253704 0.000000 33.147579
RightShoulder -20.503201 29.959101 -42.040242
RightArm -204.041315 51.216082 -250.217974
RightForeArm 22.035508 -0.000000 150.861367
RightHand 4.768259 -0.000000 -7.225969
RightHandThumb1 -24.326973 -0.000000 -32.862282
LeftUpLeg -3.702077 -0.466410 1.854741
LeftLeg -7.521092 -0.000000 0.000000
LeftFoot -19.496174 26.131283 -13.414361
LeftToeBase 25.928232 -0.000000 -0.000000
RightUpLeg -1.031778 -17.768933 0.214719
RightLeg -4.654406 -0.000000 0.000000
RightFoot -23.921149 -24.753647 21.814685
RightToeBase 23.718298 -0.000000 -0.000000
